<svg xmlns="http://www.w3.org/2000/svg" width="79.732" height="27.907" viewBox="0 0 79.732 27.907">
    <defs>
        <style>
            .cls-1{fill:#0045ff}.cls-2{fill:none}.cls-3{clip-path:url(#clip-path)}.cls-4{clip-path:url(#clip-path-2)}.cls-5{clip-path:url(#clip-path-3)}.cls-6{clip-path:url(#clip-path-6)}.cls-7{clip-path:url(#clip-path-7)}
        </style>
        <clipPath id="clip-path">
            <path d="M0 0h79.733v27.907H0z" class="cls-2"/>
        </clipPath>
        <clipPath id="clip-path-2">
            <path id="Path_200" d="M884.387 310.352a4.562 4.562 0 0 0 3.232-1.328 4.484 4.484 0 0 0-.017-6.366 4.579 4.579 0 0 0-6.414 0 4.51 4.51 0 0 0 3.2 7.693zm0 3.779a8.271 8.271 0 0 1-5.887-2.431 8.149 8.149 0 0 1-2.463-5.855 8.36 8.36 0 0 1 8.347-8.323 8.33 8.33 0 0 1 8.346 8.323 8.191 8.191 0 0 1-2.446 5.855 8.394 8.394 0 0 1-5.897 2.43zm-17.016-.17a1.927 1.927 0 0 1-1.8-1.123l-5.439-12.646a2.075 2.075 0 0 1-.188-.766 1.921 1.921 0 0 1 .547-1.328 1.856 1.856 0 0 1 1.368-.579 1.931 1.931 0 0 1 1.728 1.123l3.729 8.987 3.712-8.97a1.914 1.914 0 0 1 1.745-1.14 1.855 1.855 0 0 1 1.368.579 1.939 1.939 0 0 1 .342 2.111l-5.4 12.629a1.786 1.786 0 0 1-1.712 1.122zm-12.364.136a1.862 1.862 0 0 1-1.351-.545 1.714 1.714 0 0 1-.582-1.328v-12.816a1.866 1.866 0 0 1 .582-1.328 1.959 1.959 0 0 1 1.368-.562 1.829 1.829 0 0 1 1.334.562 1.967 1.967 0 0 1 .53 1.328v12.817a1.864 1.864 0 0 1-1.881 1.872zm0-18.263a2.1 2.1 0 0 1-2.087-2.076 2.07 2.07 0 0 1 .616-1.464 2.016 2.016 0 0 1 1.471-.6 2.046 2.046 0 0 1 1.471.6 2.071 2.071 0 0 1 .616 1.464 2 2 0 0 1-.616 1.464 2.092 2.092 0 0 1-1.471.611zm-7.081 18.11a5.744 5.744 0 0 1-4.088-1.549 5.45 5.45 0 0 1-1.693-4.051v-14.808a1.9 1.9 0 0 1 .53-1.362 1.719 1.719 0 0 1 1.3-.545 2 2 0 0 1 1.385.545 1.836 1.836 0 0 1 .582 1.362v14.808a1.725 1.725 0 0 0 1.9 1.889h.086a1.862 1.862 0 0 1 1.351.545 1.864 1.864 0 0 1-1.351 3.166zm-34-15.033l9.924-7.442a2.345 2.345 0 0 1 2.811 0l9.925 7.442a2.32 2.32 0 0 1 .93 1.856v11.658a2.329 2.329 0 0 1-2.335 2.324H822.1a2.341 2.341 0 0 0-1.481.527l-3.8 3.1a2.343 2.343 0 0 1-3.286-.322 2.317 2.317 0 0 1-.53-1.474v-15.814a2.319 2.319 0 0 1 .927-1.856zm1.229 1.624a.29.29 0 0 0-.116.232v15.817a.292.292 0 0 0 .477.225l3.8-3.1a4.393 4.393 0 0 1 2.777-.989h13.085a.291.291 0 0 0 .292-.291v-11.663a.29.29 0 0 0-.116-.232l-9.925-7.442a.293.293 0 0 0-.351 0z" class="cls-1" data-name="Path 200" transform="translate(-813 -291)"/>
        </clipPath>
        <clipPath id="clip-path-3">
            <path id="Rectangle_1255" d="M0 0h79.728v28.108H0z" class="cls-1" data-name="Rectangle 1255"/>
        </clipPath>
        <clipPath id="clip-path-6">
            <path id="Rectangle_1253" d="M0 0h79.937v28.046H0z" class="cls-1" data-name="Rectangle 1253"/>
        </clipPath>
        <clipPath id="clip-path-7">
            <path id="Rectangle_1252" d="M0 0h79.728v27.996H0z" class="cls-1" data-name="Rectangle 1252"/>
        </clipPath>
    </defs>
    <g id="Component_6_1" class="cls-3" data-name="Component 6 – 1" transform="translate(-.001)">
        <g id="Group_466" class="cls-4" data-name="Group 466">
            <g id="Group_465" data-name="Group 465">
                <g id="Group_464" class="cls-5" data-name="Group 464">
                    <g id="Group_463" data-name="Group 463">
                        <g id="Group_462" data-name="Group 462">
                            <g id="Group_461" class="cls-5" data-name="Group 461">
                                <g id="Group_456" data-name="Group 456">
                                    <g id="Group_455" class="cls-5" data-name="Group 455">
                                        <path id="Rectangle_1249" d="M0 0h82.436v30.61H0z" class="cls-1" data-name="Rectangle 1249" transform="translate(-1.351 -1.351)"/>
                                    </g>
                                </g>
                                <g id="Group_460" data-name="Group 460">
                                    <g id="Group_459" class="cls-6" data-name="Group 459">
                                        <g id="Group_458" data-name="Group 458">
                                            <g id="Group_457" class="cls-7" data-name="Group 457">
                                                <path id="Rectangle_1251" d="M0 0h82.64v30.749H0z" class="cls-1" data-name="Rectangle 1251" transform="translate(-1.351 -1.351)"/>
                                            </g>
                                        </g>
                                    </g>
                                </g>
                            </g>
                        </g>
                    </g>
                </g>
            </g>
        </g>
    </g>
</svg>
